<svg width="16215" height="6933" viewBox="0 0 16215 6933" fill="none" xmlns="http://www.w3.org/2000/svg">
<path d="M4242 1276.5L4559 1204.5L4901.5 1301.5L6984 2903.5L7059 3269L7254 3529.5C7334.17 3547.83 7499.5 3584.5 7519.5 3584.5C7539.5 3584.5 7671.17 3487.83 7734.5 3439.5L8020 3269L8305.5 3394L9141.5 3940L10418 4635.5L11384 4986L13016 5011L13566.5 4866L16099.5 3259L16161 3109L16109.5 2973.5L15539 2593.5L15428 2582.5L15344 2648.5L14918.5 3284L14794.5 3404.5H14643L14488 3284L14449 3103.5L14488 2933.5L14868 2263L15293.5 1822.5L15344 1532L15163.5 1417L12430.5 1882.5L12075 2067.5L11929.5 2358L11874.5 3159L11729.5 3484.5L11389 3855L10943.5 3940L10558 3855L9211.5 2943.5L8337.5 2557.5L5172.5 628.5L4681.5 169.5L4402.5 55L4146.5 169.5L2919.5 1276.5L1611.5 2620.5C1397 2915.33 965.8 3510.8 957 3534C948.2 3557.2 697 4080.67 572.5 4339.5L500.5 5004.5L349.5 5396.5L134 5583L55 5777.5L134 5946.5L712.5 6395.5L1334.5 6881C1410 6882.17 1565.3 6883.8 1582.5 6881C1599.7 6878.2 1678.67 6786.5 1716 6741L1689 6442.5L1442.5 5871.5V4472.5L1608.5 3977.5L1853.5 3809L2047.5 3868H2347L3123.5 2931V2521.5L3166 2230.5C3302.5 2092.5 3578 1813.2 3588 1800C3598 1786.8 4028.17 1445.5 4242 1276.5Z" stroke="black" stroke-width="100"/>
</svg>
